# xmcd
#
# Track frame offsets:
#	150
#	19002
#	36692
#	67467
#	92892
#	127402
#	166347
#	182670
#	207757
#	228072
#
# Disc length: 3434 seconds
#
# Revision: 2
# Processed by: cddbd v1.5.2PL0 Copyright (c) Steve Scherf et al.
# Submitted via: CDmax 2.0
#
DISCID=920d680a
DTITLE=Buddy Guy - Jammin' Blues Electric and Acoustic
DYEAR=2003
DGENRE=Blues
TTITLE0=I've Got My Eyes On You
TTITLE1=Talk To Me Baby
TTITLE2=First Time I Met the Blues
TTITLE3=Let Me Love You Baby
TTITLE4=My Time After Awhile
TTITLE5=I've Been There
TTITLE6=That's All Right
TTITLE7=Hoochie Coochie Man
TTITLE8=Key To the Highway
TTITLE9=Hoodoo Man Blues
EXTD=LABEL =BMG Special Products\nID =75517477182\nUPC =755174-771828\nCOP
EXTD=YRIGHT =2003
EXTT0=
EXTT1=
EXTT2=
EXTT3=
EXTT4=
EXTT5=
EXTT6=
EXTT7=
EXTT8=
EXTT9=
PLAYORDER=
